v -0.5 0 -0.75
v -0.4 0 -0.75
v -0.3 0 -0.75
v -0.19999999999999996 0 -0.75
v -0.09999999999999998 0 -0.75
v 0.0 0 -0.75
v 0.10000000000000009 0 -0.75
v 0.20000000000000007 0 -0.75
v 0.30000000000000004 0 -0.75
v 0.4 0 -0.75
v 0.5 0 -0.75
v -0.5 0 -0.65
v -0.4 0 -0.65
v -0.3 0 -0.65
v -0.19999999999999996 0 -0.65
v -0.09999999999999998 0 -0.65
v 0.0 0 -0.65
v 0.10000000000000009 0 -0.65
v 0.20000000000000007 0 -0.65
v 0.30000000000000004 0 -0.65
v 0.4 0 -0.65
v 0.5 0 -0.65
v -0.5 0 -0.55
v -0.4 0 -0.55
v -0.3 0 -0.55
v -0.19999999999999996 0 -0.55
v -0.09999999999999998 0 -0.55
v 0.0 0 -0.55
v 0.10000000000000009 0 -0.55
v 0.20000000000000007 0 -0.55
v 0.30000000000000004 0 -0.55
v 0.4 0 -0.55
v 0.5 0 -0.55
v -0.5 0 -0.44999999999999996
v -0.4 0 -0.44999999999999996
v -0.3 0 -0.44999999999999996
v -0.19999999999999996 0 -0.44999999999999996
v -0.09999999999999998 0 -0.44999999999999996
v 0.0 0 -0.44999999999999996
v 0.10000000000000009 0 -0.44999999999999996
v 0.20000000000000007 0 -0.44999999999999996
v 0.30000000000000004 0 -0.44999999999999996
v 0.4 0 -0.44999999999999996
v 0.5 0 -0.44999999999999996
v -0.5 0 -0.35
v -0.4 0 -0.35
v -0.3 0 -0.35
v -0.19999999999999996 0 -0.35
v -0.09999999999999998 0 -0.35
v 0.0 0 -0.35
v 0.10000000000000009 0 -0.35
v 0.20000000000000007 0 -0.35
v 0.30000000000000004 0 -0.35
v 0.4 0 -0.35
v 0.5 0 -0.35
v -0.5 0 -0.25
v -0.4 0 -0.25
v -0.3 0 -0.25
v -0.19999999999999996 0 -0.25
v -0.09999999999999998 0 -0.25
v 0.0 0 -0.25
v 0.10000000000000009 0 -0.25
v 0.20000000000000007 0 -0.25
v 0.30000000000000004 0 -0.25
v 0.4 0 -0.25
v 0.5 0 -0.25
v -0.5 0 -0.1499999999999999
v -0.4 0 -0.1499999999999999
v -0.3 0 -0.1499999999999999
v -0.19999999999999996 0 -0.1499999999999999
v -0.09999999999999998 0 -0.1499999999999999
v 0.0 0 -0.1499999999999999
v 0.10000000000000009 0 -0.1499999999999999
v 0.20000000000000007 0 -0.1499999999999999
v 0.30000000000000004 0 -0.1499999999999999
v 0.4 0 -0.1499999999999999
v 0.5 0 -0.1499999999999999
v -0.5 0 -0.04999999999999993
v -0.4 0 -0.04999999999999993
v -0.3 0 -0.04999999999999993
v -0.19999999999999996 0 -0.04999999999999993
v -0.09999999999999998 0 -0.04999999999999993
v 0.0 0 -0.04999999999999993
v 0.10000000000000009 0 -0.04999999999999993
v 0.20000000000000007 0 -0.04999999999999993
v 0.30000000000000004 0 -0.04999999999999993
v 0.4 0 -0.04999999999999993
v 0.5 0 -0.04999999999999993
v -0.5 0 0.050000000000000044
v -0.4 0 0.050000000000000044
v -0.3 0 0.050000000000000044
v -0.19999999999999996 0 0.050000000000000044
v -0.09999999999999998 0 0.050000000000000044
v 0.0 0 0.050000000000000044
v 0.10000000000000009 0 0.050000000000000044
v 0.20000000000000007 0 0.050000000000000044
v 0.30000000000000004 0 0.050000000000000044
v 0.4 0 0.050000000000000044
v 0.5 0 0.050000000000000044
v -0.5 0 0.15000000000000002
v -0.4 0 0.15000000000000002
v -0.3 0 0.15000000000000002
v -0.19999999999999996 0 0.15000000000000002
v -0.09999999999999998 0 0.15000000000000002
v 0.0 0 0.15000000000000002
v 0.10000000000000009 0 0.15000000000000002
v 0.20000000000000007 0 0.15000000000000002
v 0.30000000000000004 0 0.15000000000000002
v 0.4 0 0.15000000000000002
v 0.5 0 0.15000000000000002
v -0.5 0 0.25
v -0.4 0 0.25
v -0.3 0 0.25
v -0.19999999999999996 0 0.25
v -0.09999999999999998 0 0.25
v 0.0 0 0.25
v 0.10000000000000009 0 0.25
v 0.20000000000000007 0 0.25
v 0.30000000000000004 0 0.25
v 0.4 0 0.25
v 0.5 0 0.25
v -0.5 0 0.3500000000000001
v -0.4 0 0.3500000000000001
v -0.3 0 0.3500000000000001
v -0.19999999999999996 0 0.3500000000000001
v -0.09999999999999998 0 0.3500000000000001
v 0.0 0 0.3500000000000001
v 0.10000000000000009 0 0.3500000000000001
v 0.20000000000000007 0 0.3500000000000001
v 0.30000000000000004 0 0.3500000000000001
v 0.4 0 0.3500000000000001
v 0.5 0 0.3500000000000001
v -0.5 0 0.4500000000000002
v -0.4 0 0.4500000000000002
v -0.3 0 0.4500000000000002
v -0.19999999999999996 0 0.4500000000000002
v -0.09999999999999998 0 0.4500000000000002
v 0.0 0 0.4500000000000002
v 0.10000000000000009 0 0.4500000000000002
v 0.20000000000000007 0 0.4500000000000002
v 0.30000000000000004 0 0.4500000000000002
v 0.4 0 0.4500000000000002
v 0.5 0 0.4500000000000002
v -0.5 0 0.55
v -0.4 0 0.55
v -0.3 0 0.55
v -0.19999999999999996 0 0.55
v -0.09999999999999998 0 0.55
v 0.0 0 0.55
v 0.10000000000000009 0 0.55
v 0.20000000000000007 0 0.55
v 0.30000000000000004 0 0.55
v 0.4 0 0.55
v 0.5 0 0.55
v -0.5 0 0.6500000000000001
v -0.4 0 0.6500000000000001
v -0.3 0 0.6500000000000001
v -0.19999999999999996 0 0.6500000000000001
v -0.09999999999999998 0 0.6500000000000001
v 0.0 0 0.6500000000000001
v 0.10000000000000009 0 0.6500000000000001
v 0.20000000000000007 0 0.6500000000000001
v 0.30000000000000004 0 0.6500000000000001
v 0.4 0 0.6500000000000001
v 0.5 0 0.6500000000000001
v -0.5 0 0.75
v -0.4 0 0.75
v -0.3 0 0.75
v -0.19999999999999996 0 0.75
v -0.09999999999999998 0 0.75
v 0.0 0 0.75
v 0.10000000000000009 0 0.75
v 0.20000000000000007 0 0.75
v 0.30000000000000004 0 0.75
v 0.4 0 0.75
v 0.5 0 0.75
f 1 12 2
f 2 12 13
f 2 13 3
f 3 13 14
f 3 14 4
f 4 14 15
f 4 15 5
f 5 15 16
f 5 16 6
f 6 16 17
f 6 17 7
f 7 17 18
f 7 18 8
f 8 18 19
f 8 19 9
f 9 19 20
f 9 20 10
f 10 20 21
f 10 21 11
f 11 21 22
f 12 23 13
f 13 23 24
f 13 24 14
f 14 24 25
f 14 25 15
f 15 25 26
f 15 26 16
f 16 26 27
f 16 27 17
f 17 27 28
f 17 28 18
f 18 28 29
f 18 29 19
f 19 29 30
f 19 30 20
f 20 30 31
f 20 31 21
f 21 31 32
f 21 32 22
f 22 32 33
f 23 34 24
f 24 34 35
f 24 35 25
f 25 35 36
f 25 36 26
f 26 36 37
f 26 37 27
f 27 37 38
f 27 38 28
f 28 38 39
f 28 39 29
f 29 39 40
f 29 40 30
f 30 40 41
f 30 41 31
f 31 41 42
f 31 42 32
f 32 42 43
f 32 43 33
f 33 43 44
f 34 45 35
f 35 45 46
f 35 46 36
f 36 46 47
f 36 47 37
f 37 47 48
f 37 48 38
f 38 48 49
f 38 49 39
f 39 49 50
f 39 50 40
f 40 50 51
f 40 51 41
f 41 51 52
f 41 52 42
f 42 52 53
f 42 53 43
f 43 53 54
f 43 54 44
f 44 54 55
f 45 56 46
f 46 56 57
f 46 57 47
f 47 57 58
f 47 58 48
f 48 58 59
f 48 59 49
f 49 59 60
f 49 60 50
f 50 60 61
f 50 61 51
f 51 61 62
f 51 62 52
f 52 62 63
f 52 63 53
f 53 63 64
f 53 64 54
f 54 64 65
f 54 65 55
f 55 65 66
f 56 67 57
f 57 67 68
f 57 68 58
f 58 68 69
f 58 69 59
f 59 69 70
f 59 70 60
f 60 70 71
f 60 71 61
f 61 71 72
f 61 72 62
f 62 72 73
f 62 73 63
f 63 73 74
f 63 74 64
f 64 74 75
f 64 75 65
f 65 75 76
f 65 76 66
f 66 76 77
f 67 78 68
f 68 78 79
f 68 79 69
f 69 79 80
f 69 80 70
f 70 80 81
f 70 81 71
f 71 81 82
f 71 82 72
f 72 82 83
f 72 83 73
f 73 83 84
f 73 84 74
f 74 84 85
f 74 85 75
f 75 85 86
f 75 86 76
f 76 86 87
f 76 87 77
f 77 87 88
f 78 89 79
f 79 89 90
f 79 90 80
f 80 90 91
f 80 91 81
f 81 91 92
f 81 92 82
f 82 92 93
f 82 93 83
f 83 93 94
f 83 94 84
f 84 94 95
f 84 95 85
f 85 95 96
f 85 96 86
f 86 96 97
f 86 97 87
f 87 97 98
f 87 98 88
f 88 98 99
f 89 100 90
f 90 100 101
f 90 101 91
f 91 101 102
f 91 102 92
f 92 102 103
f 92 103 93
f 93 103 104
f 93 104 94
f 94 104 105
f 94 105 95
f 95 105 106
f 95 106 96
f 96 106 107
f 96 107 97
f 97 107 108
f 97 108 98
f 98 108 109
f 98 109 99
f 99 109 110
f 100 111 101
f 101 111 112
f 101 112 102
f 102 112 113
f 102 113 103
f 103 113 114
f 103 114 104
f 104 114 115
f 104 115 105
f 105 115 116
f 105 116 106
f 106 116 117
f 106 117 107
f 107 117 118
f 107 118 108
f 108 118 119
f 108 119 109
f 109 119 120
f 109 120 110
f 110 120 121
f 111 122 112
f 112 122 123
f 112 123 113
f 113 123 124
f 113 124 114
f 114 124 125
f 114 125 115
f 115 125 126
f 115 126 116
f 116 126 127
f 116 127 117
f 117 127 128
f 117 128 118
f 118 128 129
f 118 129 119
f 119 129 130
f 119 130 120
f 120 130 131
f 120 131 121
f 121 131 132
f 122 133 123
f 123 133 134
f 123 134 124
f 124 134 135
f 124 135 125
f 125 135 136
f 125 136 126
f 126 136 137
f 126 137 127
f 127 137 138
f 127 138 128
f 128 138 139
f 128 139 129
f 129 139 140
f 129 140 130
f 130 140 141
f 130 141 131
f 131 141 142
f 131 142 132
f 132 142 143
f 133 144 134
f 134 144 145
f 134 145 135
f 135 145 146
f 135 146 136
f 136 146 147
f 136 147 137
f 137 147 148
f 137 148 138
f 138 148 149
f 138 149 139
f 139 149 150
f 139 150 140
f 140 150 151
f 140 151 141
f 141 151 152
f 141 152 142
f 142 152 153
f 142 153 143
f 143 153 154
f 144 155 145
f 145 155 156
f 145 156 146
f 146 156 157
f 146 157 147
f 147 157 158
f 147 158 148
f 148 158 159
f 148 159 149
f 149 159 160
f 149 160 150
f 150 160 161
f 150 161 151
f 151 161 162
f 151 162 152
f 152 162 163
f 152 163 153
f 153 163 164
f 153 164 154
f 154 164 165
f 155 166 156
f 156 166 167
f 156 167 157
f 157 167 168
f 157 168 158
f 158 168 169
f 158 169 159
f 159 169 170
f 159 170 160
f 160 170 171
f 160 171 161
f 161 171 172
f 161 172 162
f 162 172 173
f 162 173 163
f 163 173 174
f 163 174 164
f 164 174 175
f 164 175 165
f 165 175 176
