v 0.05 -1.0 0.0
v 0.049039264020161524 -1.0 0.009754516100806413
v 0.04619397662556434 -1.0 0.01913417161825449
v 0.041573480615127265 -1.0 0.02777851165098011
v 0.03535533905932738 -1.0 0.03535533905932738
v 0.027778511650980116 -1.0 0.041573480615127265
v 0.019134171618254495 -1.0 0.04619397662556434
v 0.009754516100806417 -1.0 0.049039264020161524
v 3.061616997868383e-18 -1.0 0.05
v -0.00975451610080641 -1.0 0.049039264020161524
v -0.019134171618254488 -1.0 0.04619397662556434
v -0.0277785116509801 -1.0 0.04157348061512727
v -0.035355339059327376 -1.0 0.03535533905932738
v -0.04157348061512727 -1.0 0.02777851165098011
v -0.04619397662556434 -1.0 0.019134171618254495
v -0.049039264020161524 -1.0 0.00975451610080643
v -0.05 -1.0 6.123233995736766e-18
v -0.049039264020161524 -1.0 -0.009754516100806418
v -0.04619397662556435 -1.0 -0.019134171618254484
v -0.04157348061512728 -1.0 -0.0277785116509801
v -0.03535533905932738 -1.0 -0.035355339059327376
v -0.02777851165098011 -1.0 -0.041573480615127265
v -0.01913417161825452 -1.0 -0.04619397662556433
v -0.009754516100806434 -1.0 -0.04903926402016152
v -9.184850993605149e-18 -1.0 -0.05
v 0.009754516100806417 -1.0 -0.049039264020161524
v 0.0191341716182545 -1.0 -0.046193976625564334
v 0.027778511650980095 -1.0 -0.04157348061512728
v 0.03535533905932737 -1.0 -0.03535533905932738
v 0.041573480615127265 -1.0 -0.02777851165098011
v 0.04619397662556433 -1.0 -0.019134171618254522
v 0.04903926402016152 -1.0 -0.009754516100806437
v 0.05 1.0 0.0
v 0.049039264020161524 1.0 0.009754516100806413
v 0.04619397662556434 1.0 0.01913417161825449
v 0.041573480615127265 1.0 0.02777851165098011
v 0.03535533905932738 1.0 0.03535533905932738
v 0.027778511650980116 1.0 0.041573480615127265
v 0.019134171618254495 1.0 0.04619397662556434
v 0.009754516100806417 1.0 0.049039264020161524
v 3.061616997868383e-18 1.0 0.05
v -0.00975451610080641 1.0 0.049039264020161524
v -0.019134171618254488 1.0 0.04619397662556434
v -0.0277785116509801 1.0 0.04157348061512727
v -0.035355339059327376 1.0 0.03535533905932738
v -0.04157348061512727 1.0 0.02777851165098011
v -0.04619397662556434 1.0 0.019134171618254495
v -0.049039264020161524 1.0 0.00975451610080643
v -0.05 1.0 6.123233995736766e-18
v -0.049039264020161524 1.0 -0.009754516100806418
v -0.04619397662556435 1.0 -0.019134171618254484
v -0.04157348061512728 1.0 -0.0277785116509801
v -0.03535533905932738 1.0 -0.035355339059327376
v -0.02777851165098011 1.0 -0.041573480615127265
v -0.01913417161825452 1.0 -0.04619397662556433
v -0.009754516100806434 1.0 -0.04903926402016152
v -9.184850993605149e-18 1.0 -0.05
v 0.009754516100806417 1.0 -0.049039264020161524
v 0.0191341716182545 1.0 -0.046193976625564334
v 0.027778511650980095 1.0 -0.04157348061512728
v 0.03535533905932737 1.0 -0.03535533905932738
v 0.041573480615127265 1.0 -0.02777851165098011
v 0.04619397662556433 1.0 -0.019134171618254522
v 0.04903926402016152 1.0 -0.009754516100806437
f 1 2 34 33
f 2 3 35 34
f 3 4 36 35
f 4 5 37 36
f 5 6 38 37
f 6 7 39 38
f 7 8 40 39
f 8 9 41 40
f 9 10 42 41
f 10 11 43 42
f 11 12 44 43
f 12 13 45 44
f 13 14 46 45
f 14 15 47 46
f 15 16 48 47
f 16 17 49 48
f 17 18 50 49
f 18 19 51 50
f 19 20 52 51
f 20 21 53 52
f 21 22 54 53
f 22 23 55 54
f 23 24 56 55
f 24 25 57 56
f 25 26 58 57
f 26 27 59 58
f 27 28 60 59
f 28 29 61 60
f 29 30 62 61
f 30 31 63 62
f 31 32 64 63
f 32 1 33 64
v 0 1.0 0
f 65 33 34
f 65 34 35
f 65 35 36
f 65 36 37
f 65 37 38
f 65 38 39
f 65 39 40
f 65 40 41
f 65 41 42
f 65 42 43
f 65 43 44
f 65 44 45
f 65 45 46
f 65 46 47
f 65 47 48
f 65 48 49
f 65 49 50
f 65 50 51
f 65 51 52
f 65 52 53
f 65 53 54
f 65 54 55
f 65 55 56
f 65 56 57
f 65 57 58
f 65 58 59
f 65 59 60
f 65 60 61
f 65 61 62
f 65 62 63
f 65 63 64
f 65 64 33
v 0 -1.0 0
f 66 2 1
f 66 3 2
f 66 4 3
f 66 5 4
f 66 6 5
f 66 7 6
f 66 8 7
f 66 9 8
f 66 10 9
f 66 11 10
f 66 12 11
f 66 13 12
f 66 14 13
f 66 15 14
f 66 16 15
f 66 17 16
f 66 18 17
f 66 19 18
f 66 20 19
f 66 21 20
f 66 22 21
f 66 23 22
f 66 24 23
f 66 25 24
f 66 26 25
f 66 27 26
f 66 28 27
f 66 29 28
f 66 30 29
f 66 31 30
f 66 32 31
f 66 1 32
